<svg width="32" height="32" viewBox="0 0 32 32" fill="none" xmlns="http://www.w3.org/2000/svg">
<g clip-path="url(#clip0_391_17)">
<rect width="32" height="32" rx="16" fill="white"/>
<path d="M22.6998 21.2298C21.8914 21.2984 21.2262 21.248 20.7615 21.1874C19.9797 21.0844 19.5069 21.0157 19.0137 20.6704C18.8131 20.5311 18.3198 20.1757 18.109 19.5134C17.8429 18.6794 18.2195 17.9625 18.3137 17.7808C18.5961 17.2376 19.0157 16.9367 19.1835 16.8176C20.168 16.125 23.7068 14.5943 28.6067 12.8072C27.2538 11.7188 26.038 11.4199 25.3442 11.321C22.532 10.9191 20.1659 12.6335 18.2114 14.0511C16.8789 15.0184 15.9169 15.9876 15.2988 16.6742V22.3606C15.395 20.6947 15.6058 19.5093 15.7573 18.8066C15.8637 18.3139 15.962 17.9444 16.1851 17.5243C16.6681 16.6076 17.3967 16.0926 17.8634 15.7897C20.1926 14.2772 23.4285 13.2131 23.4489 13.2716C23.4673 13.3221 20.5773 14.4408 18.1929 16.0523C17.8798 16.2643 17.2698 16.6904 16.881 17.4738C16.7315 17.7747 16.4266 18.5077 16.5719 19.4326C16.7397 20.4928 17.4254 21.3126 18.1295 21.7488C19.423 22.5504 21.2732 22.3606 22.6998 21.2298Z" fill="black"/>
<path d="M28.5629 13.5178C28.346 14.1802 28.0861 14.792 27.7688 15.3776C27.4536 15.9592 27.0852 16.5044 26.6595 17.0133C26.6308 17.0456 26.5817 17.0698 26.5367 17.0799C25.0037 17.401 23.4727 17.7201 21.9398 18.0411C21.6818 18.0956 21.424 18.1542 21.1702 18.2208C20.8693 18.2996 20.6052 18.447 20.3903 18.6711C20.2389 18.8266 20.2778 18.9458 20.4865 19.0124C20.7096 19.0831 20.9287 19.0306 21.1477 18.9983C21.9275 18.8872 22.7052 18.7741 23.4829 18.653C24.2607 18.5338 25.0364 18.4046 25.8142 18.2794C25.8633 18.2713 25.9145 18.2673 25.9881 18.2592C25.8224 18.4773 25.675 18.6792 25.5215 18.8751C25.1572 19.3395 24.7786 19.7939 24.3242 20.1776C24.23 20.2563 24.1318 20.333 24.0336 20.4098C23.8514 20.5532 23.6426 20.6117 23.4134 20.6097C22.431 20.6097 21.4465 20.6097 20.464 20.6097C19.9442 20.6097 19.4919 20.4421 19.1194 20.0726C18.4807 19.4405 18.4337 18.4874 18.9986 17.7826C19.2626 17.4535 19.5881 17.2152 19.9789 17.0537C21.8476 16.2843 23.7143 15.5109 25.5829 14.7415C26.4917 14.368 27.4045 14.0004 28.3173 13.6289C28.389 13.5945 28.4627 13.5623 28.5629 13.5178Z" fill="black"/>
<path d="M4.74182 18.2574C4.92807 18.2858 5.09385 18.314 5.25964 18.3382C6.47335 18.526 7.68502 18.7138 8.89872 18.8976C9.24871 18.9501 9.60076 18.9965 9.95281 19.0329C10.0613 19.043 10.182 19.0309 10.2844 18.9945C10.4481 18.936 10.4665 18.835 10.356 18.6997C10.1902 18.4978 9.97532 18.3544 9.72972 18.2797C9.41858 18.1847 9.09724 18.11 8.77795 18.0434C7.24703 17.7203 5.71401 17.4053 4.18306 17.0822C4.12984 17.0701 4.06845 17.0378 4.03569 16.9954C3.27431 16.0766 2.53544 14.6893 2.1875 13.5322C2.22229 13.5423 2.2489 13.5464 2.27346 13.5565C5.08976 14.7155 7.90605 15.8747 10.7203 17.0398C11.3466 17.3003 11.7989 17.7486 12.0138 18.3927C12.2901 19.2267 11.8522 20.0991 11.0028 20.4525C10.7633 20.5514 10.5136 20.6039 10.2557 20.6059C9.26097 20.61 8.26629 20.6059 7.27156 20.608C7.01776 20.608 6.80493 20.5191 6.61048 20.3636C6.13973 19.986 5.74676 19.5357 5.36812 19.0733C5.17368 18.837 4.99152 18.5906 4.80527 18.3483C4.7807 18.3241 4.76843 18.2979 4.74182 18.2574Z" fill="black"/>
<path d="M22.7006 21.2298C21.2741 22.3606 19.4238 22.5525 18.1303 21.7508C17.4262 21.3146 16.7406 20.4948 16.5727 19.4367C16.4274 18.5118 16.7324 17.7788 16.8818 17.4779C17.2707 16.6944 17.8806 16.2663 18.1937 16.0563C20.5782 14.4449 23.4681 13.3262 23.4497 13.2757C23.4293 13.2171 20.1934 14.2813 17.8642 15.7937C17.3976 16.0967 16.6709 16.6116 16.1859 17.5284C15.9648 17.9484 15.8645 18.3179 15.7581 18.8107C15.6107 19.4932 15.4081 20.6341 15.3078 22.2314C15.3058 22.2536 15.3058 22.2758 15.3038 22.298C15.3017 22.2758 15.3017 22.2536 15.2996 22.2314C15.1994 20.6361 14.9967 19.4932 14.8493 18.8107C14.7429 18.3179 14.6447 17.9484 14.4216 17.5284C13.9365 16.6116 13.2099 16.0967 12.7433 15.7937C10.4141 14.2813 7.1782 13.2171 7.15775 13.2757C7.13935 13.3262 10.0293 14.4449 12.4137 16.0563C12.7269 16.2683 13.3368 16.6944 13.7257 17.4779C13.8751 17.7788 14.1801 18.5118 14.0348 19.4367C13.869 20.4948 13.1813 21.3166 12.4772 21.7508C11.1837 22.5525 9.33341 22.3606 7.90687 21.2298C8.71531 21.2985 9.3805 21.25 9.84513 21.1874C10.627 21.0844 11.0997 21.0157 11.593 20.6704C11.7936 20.5311 12.2869 20.1757 12.4977 19.5134C12.7637 18.6794 12.3872 17.9625 12.293 17.7808C12.0105 17.2376 11.591 16.9367 11.4231 16.8176C10.4387 16.1249 6.89988 14.5943 2 12.8072C3.35289 11.7188 4.56865 11.4199 5.26249 11.321C8.07468 10.9191 10.4407 12.6335 12.3954 14.0511C13.7257 15.0163 14.6856 15.9836 15.3038 16.6702C15.9219 15.9836 16.8838 15.0163 18.2121 14.0511C20.1668 12.6335 22.5328 10.9171 25.345 11.321C26.0388 11.4199 27.2546 11.7188 28.6075 12.8072C23.7076 14.5943 20.1688 16.1249 19.1843 16.8176C19.0165 16.9367 18.5969 17.2376 18.3145 17.7808C18.2203 17.9625 17.8458 18.6794 18.1098 19.5134C18.3206 20.1737 18.8139 20.5311 19.0145 20.6704C19.5077 21.0157 19.9805 21.0824 20.7623 21.1874C21.2249 21.25 21.8901 21.2985 22.7006 21.2298Z" fill="black"/>
<path d="M15.309 22.2292V22.3629C15.3068 22.3406 15.3068 22.3183 15.3047 22.2961C15.3068 22.2738 15.309 22.2515 15.309 22.2292Z" fill="black"/>
<path d="M15.3031 22.2961C15.301 22.3183 15.301 22.3406 15.2988 22.3629V22.2292C15.301 22.2515 15.3031 22.2738 15.3031 22.2961Z" fill="black"/>
</g>
<defs>
<clipPath id="clip0_391_17">
<rect width="32" height="32" rx="16" fill="white"/>
</clipPath>
</defs>
</svg>
